<svg version="1.1" xmlns="http://www.w3.org/2000/svg" xmlns:xlink="http://www.w3.org/1999/xlink" width="604.1021" height="220.43594" viewBox="0,0,604.1021,220.43594"><g transform="translate(71.94541,-190.19812)"><g data-paper-data="{&quot;isPaintingLayer&quot;:true}" fill-rule="nonzero" stroke-linejoin="miter" stroke-miterlimit="10" stroke-dasharray="" stroke-dashoffset="0" style="mix-blend-mode: normal"><path d="M-0.56229,358.8202v-115.65202h480.71646v115.65202z" fill="#a837ef" stroke="none" stroke-width="0" stroke-linecap="butt"/><path d="M477.51653,241.6538h-477.51652" fill="none" stroke="#ffffff" stroke-width="2" stroke-linecap="round"/><path d="M6.57339,354.07852v-103.60361h110.89949v103.60361z" fill="#9230cf" stroke="none" stroke-width="0" stroke-linecap="butt"/><path d="M125.28269,354.07852v-103.60361h110.89949v103.60361z" fill="#9230cf" stroke="none" stroke-width="0" stroke-linecap="butt"/><path d="M242.43004,354.07852v-103.60361h110.89949v103.60361z" fill="#9230cf" stroke="none" stroke-width="0" stroke-linecap="butt"/><path d="M361.13936,354.07851v-103.60361h110.89949v103.60361z" fill="#9230cf" stroke="none" stroke-width="0" stroke-linecap="butt"/><path d="M-70.94541,409.63407v-13.51351h602.1021v13.51351z" fill="#ff0000" stroke="#000000" stroke-width="2" stroke-linecap="butt"/><path d="M70.45421,241.02586l23.63237,-25.31074l22.22497,25.51934z" fill="#000000" stroke="#ffffff" stroke-width="2" stroke-linecap="butt"/><path d="M114.57592,241.02586l23.63237,-25.31074l22.22497,25.51934z" fill="#000000" stroke="#ffffff" stroke-width="2" stroke-linecap="butt"/><path d="M92.51506,217.00183l23.63237,-25.31074l22.22497,25.51934z" fill="#000000" stroke="#ffffff" stroke-width="2" stroke-linecap="butt"/><path d="M373.50513,241.4289v-28.52853h31.53153v28.52853z" fill="#000000" stroke="#ffffff" stroke-width="2" stroke-linecap="butt"/></g></g></svg>